<svg width="250" height="65" fill="none" xmlns="http://www.w3.org/2000/svg"><path stroke="#000" d="M.5.5h249v64H.5z"/><path d="m31.593 19.848-3.705-.488v-2.034h11.713v2.034l-3.705.488v25.304l3.705.448v1.953H27.928v-1.994l3.665-.407V19.848Zm15.391 0-3.187-.488v-2.034h7.41l13.267 19.852 2.231 4.313V19.848l-3.466-.488v-2.034h9.402v2.034l-3.187.488v27.705h-3.147L52.76 27.252l-3.067-5.37v23.27l3.784.407v1.994h-9.68v-1.994l3.186-.447V19.848ZM85.184 48c-1.381 0-2.616-.122-3.705-.366a45.403 45.403 0 0 1-3.586-.977c-.796-.298-1.394-.46-1.793-.488l.32-7.363h2.549l.677 5.288c.452.434 1.182.828 2.191 1.18 1.036.326 2.165.489 3.387.489 2.018 0 3.546-.462 4.581-1.384 1.063-.922 1.594-2.197 1.594-3.824 0-1.058-.292-1.966-.877-2.726-.557-.759-1.314-1.41-2.27-1.952-.93-.543-2.218-1.18-3.865-1.912-1.487-.679-2.789-1.37-3.904-2.075-1.09-.705-2.045-1.641-2.869-2.807-.796-1.194-1.195-2.618-1.195-4.272 0-1.492.385-2.82 1.156-3.987.796-1.193 1.925-2.129 3.386-2.807C82.448 17.34 84.175 17 86.141 17c1.22 0 2.297.095 3.226.285.956.19 2.032.447 3.227.773.531.19.983.312 1.355.366l-.24 6.835h-2.43l-.796-5.004c-.266-.272-.824-.53-1.674-.773-.823-.244-1.726-.366-2.709-.366-1.832 0-3.227.393-4.183 1.18-.93.786-1.394 1.925-1.394 3.417 0 1.084.279 1.993.836 2.725a8.079 8.079 0 0 0 2.152 1.872c.85.515 2.204 1.22 4.063 2.115 1.727.841 3.134 1.6 4.223 2.278a9.462 9.462 0 0 1 2.79 2.685c.796 1.085 1.194 2.387 1.194 3.906 0 1.437-.398 2.82-1.195 4.15-.77 1.328-1.965 2.427-3.585 3.295-1.594.84-3.533 1.261-5.817 1.261Zm17.32-28.152-3.107-.488v-2.034h5.299c.956 0 1.899-.041 2.828-.123a54.003 54.003 0 0 1 4.064-.162c3.851.027 6.573.76 8.167 2.197 1.594 1.437 2.39 3.607 2.39 6.509 0 2.17-.491 4.054-1.474 5.655-.982 1.6-2.35 2.82-4.103 3.661-1.727.84-3.719 1.261-5.976 1.261-.77 0-1.554-.013-2.351-.04a28.256 28.256 0 0 1-1.474-.123v8.95l5.458.448v1.994H99.198v-1.994l3.306-.407V19.848Zm4.263 14.076c.744.136 2.019.203 3.825.203 2.098 0 3.798-.65 5.099-1.953 1.328-1.301 1.992-3.43 1.992-6.387 0-2.332-.571-4-1.713-5.003-1.142-1.031-2.921-1.546-5.338-1.546-.85 0-1.753.054-2.709.162-.585.055-.97.082-1.156.082v14.442Zm22.247-14.076-3.705-.488v-2.034h11.713v2.034l-3.705.488v25.304l3.705.448v1.953h-11.673v-1.994l3.665-.407V19.848Zm12.045 25.712 3.306-.408V19.848l-3.107-.53v-1.992h5.219c.744 0 1.753-.055 3.028-.163 1.328-.109 2.364-.163 3.107-.163 3.905 0 6.68.65 8.327 1.953 1.673 1.274 2.51 3.295 2.51 6.061a9.364 9.364 0 0 1-1.594 5.29c-1.036 1.6-2.47 2.684-4.303 3.254.85.46 1.634 1.26 2.351 2.4.744 1.112 1.647 2.672 2.709 4.678.823 1.52 1.448 2.631 1.873 3.336.451.706.876 1.099 1.274 1.18l1.554.407v1.994h-5.498c-.425 0-.903-.462-1.434-1.384-.531-.949-1.235-2.4-2.111-4.353-.957-2.142-1.793-3.837-2.51-5.085-.691-1.275-1.382-2.088-2.072-2.441-2.842 0-4.529-.014-5.06-.04v10.902l3.944.407v1.994h-11.513v-1.994Zm12.31-13.467c1.7 0 3.041-.57 4.024-1.709.983-1.139 1.474-2.834 1.474-5.085 0-1.98-.505-3.485-1.514-4.515-.983-1.058-2.696-1.587-5.139-1.587-.85 0-1.7.054-2.55.163a13.35 13.35 0 0 1-1.036.08v12.613c.399.027 1.222.04 2.47.04h2.271Zm19.048-12.245-3.267-.488v-2.034h20.278l.558 6.305h-2.271l-1.155-3.946-9.88-.244v11.472l6.653-.122.558-3.376h2.191v9.357h-2.191l-.558-3.499-6.653-.122v12.123l11.234-.407 2.112-5.125 2.35.732-1.155 7.079H169.11v-1.994l3.307-.407V19.848Zm25.95 0-3.107-.488v-2.034h5.219c.823 0 2.005-.055 3.545-.163 1.541-.109 2.696-.163 3.466-.163 4.94 0 8.606 1.275 10.996 3.824 2.417 2.522 3.626 6.075 3.626 10.659 0 3.2-.625 6.048-1.873 8.543-1.222 2.468-2.948 4.394-5.179 5.777-2.231 1.383-4.794 2.075-7.689 2.075-.638 0-1.727-.054-3.267-.163-1.594-.108-2.789-.163-3.586-.163h-5.458V45.56l3.307-.407V19.848Zm4.223 25.426c.93.217 2.125.326 3.586.326h1.195c1.992-.027 3.745-.543 5.259-1.546 1.54-1.004 2.735-2.495 3.585-4.475.85-2.007 1.275-4.435 1.275-7.282 0-4.286-.916-7.54-2.749-9.764-1.806-2.224-4.542-3.336-8.207-3.336-.77 0-1.686.054-2.749.163-.451.08-.85.122-1.195.122v25.792Z" fill="#000"/></svg>